<?xml version="1.0" encoding="utf-8"?>
<!-- Generated by IcoMoon.io -->
<!DOCTYPE svg PUBLIC "-//W3C//DTD SVG 1.1//EN" "http://www.w3.org/Graphics/SVG/1.1/DTD/svg11.dtd">
<svg version="1.1" xmlns="http://www.w3.org/2000/svg" xmlns:xlink="http://www.w3.org/1999/xlink" width="512" height="512" viewBox="0 0 512 512">
<g>
</g>
	<path d="M227.205 452.106l19.917 1.198v-97.382c-34.386 6.021-55.798 11.141-64.226 15.38 12.042 29.849 27.146 56.965 44.309 80.804z" fill="#000000" />
	<path d="M156.651 247.091h90.471v-72.356c-17.5 0-41.001-5.724-70.553-17.183-13.281 31.642-19.917 61.501-19.917 89.538z" fill="#000000" />
	<path d="M163.901 313.108c5.1 20.541 9.636 34.683 13.865 42.824 28.355-11.479 51.548-17.224 69.346-17.224v-73.237h-90.471c0.010 11.161 2.427 26.839 7.26 47.637z" fill="#000000" />
	<path d="M233.267 61.072c-1.843 0.297-3.942 0.604-6.062 0.88-18.105 24.719-32.87 51.282-44.309 79.596 12.042 3.635 24.105 6.942 35.87 9.339 11.745 2.724 21.105 3.922 28.365 3.922v-94.055h-6.963c-2.703 0-4.844 0-6.902 0.318z" fill="#000000" />
	<path d="M122.89 402.35c26.829 21.125 53.36 35.584 79.596 43.438-9.052-12.083-21.115-34.375-36.792-66.939-14.172 6.298-28.314 14.142-42.803 23.501z" fill="#000000" />
	<path d="M390.318 110.213c-25.037-20.818-52.142-35.277-80.784-43.725 14.756 18.995 27.719 41.902 38.605 68.762 23.481-12.38 37.346-20.838 42.178-25.037z" fill="#000000" />
	<path d="M138.261 265.472h-76.903c0 18.401 4.27 39.199 12.656 62.72 8.458 23.501 20.224 43.735 35.605 60.283 2.13-1.782 18.698-10.537 49.746-26.224-14.162-40.981-21.105-73.277-21.105-96.778z" fill="#000000" />
	<path d="M201.287 67.666c-32.87 8.458-58.788 22.641-78.387 42.537 5.724 5.12 19.897 12.964 42.814 23.818 9.339-23.808 21.095-45.814 35.574-66.355z" fill="#000000" />
	<path d="M146.105 194.345c4.844-19.917 9.636-34.396 14.459-43.458-6.902-3.277-13.547-6.298-20.48-9.339-6.625-3.021-12.656-6-18.105-9.001-5.427-3.042-9.319-5.745-12.359-8.775-28.334 29.563-44.944 70.841-49.746 123.32h78.387c0.307-15.339 3.011-32.88 7.844-52.746z" fill="#000000" />
	<path d="M353.863 361.052c12.636 6.615 23.501 12.339 32.236 16.875 8.755 4.516 14.776 7.844 18.104 10.537 13.261-13.261 24.402-31.662 34.058-55.183 9.656-23.501 14.183-46.121 14.183-67.82h-75.684c0 24.433-7.557 56.084-22.897 95.591z" fill="#000000" />
	<path d="M402.995 123.771c-10.578 7.537-27.136 16.579-49.142 27.116 14.459 35.298 21.699 67.236 21.699 96.205h76.882c0-21.995-4.26-44.595-13.281-67.543-9.031-22.917-21.094-41.298-36.158-55.778z" fill="#000000" />
	<path d="M340.859 392.99c-3.604 9.36-7.824 18.105-12.339 26.563-4.823 8.418-10.26 16.875-16.62 24.719 32.276-6.615 58.245-20.798 78.418-41.923-4.844-3.901-19.303-11.735-43.418-23.501-0.297 0.317-2.396 5.14-6.041 14.142z" fill="#000000" />
	<path d="M423.783 12.995h-335.555c-41.554 0-75.243 33.679-75.243 75.243v335.524c0 41.564 33.69 75.264 75.243 75.264h335.555c41.543 0 75.243-33.7 75.243-75.264v-335.534c-0.010-41.554-33.71-75.234-75.243-75.234zM442.481 369.787c-20.5 33.782-47.022 59.085-79.903 76.882-32.86 17.52-68.158 26.255-105.534 26.255-55.757 0-106.424-20.5-151.675-61.522-45.179-41.277-66.888-95.897-65.689-164.321 1.229-33.485 8.428-62.996 21.678-88.32 13.005-25.641 30.495-47.36 52.48-65.721 21.698-18.125 45.22-31.683 70.257-40.755 24.996-8.724 49.726-13.22 74.455-13.22 35.861 0 70.564 8.745 103.424 26.542 32.88 17.459 59.402 42.455 79.319 74.742 20.183 32.276 30.423 69.642 31.038 112.456 0.307 44.626-9.625 83.528-29.849 116.982z" fill="#000000" />
	<path d="M266.096 357.11v96.205l19.61-1.198c11.418-14.183 26.563-41.022 44.615-80.804-22.323-8.161-43.704-12.985-64.226-14.203z" fill="#000000" />
	<path d="M349.942 197.632c-4.536-19.6-9.083-33.157-13.281-40.079-28.365 11.459-51.876 17.183-70.564 17.183v72.356h90.46c0-13.558-2.437-30.137-6.615-49.459z" fill="#000000" />
	<path d="M284.498 61.952c-1.515-0.88-5.417-1.198-11.479-1.198h-6.922v94.065c31.027-2.078 52.47-6.922 64.226-14.459-12.677-30.771-28.027-56.689-45.824-78.407z" fill="#000000" />
	<path d="M303.175 343.572c14.797 3.901 25.938 8.12 33.485 12.36 13.281-34.079 19.897-63.938 19.897-90.46h-90.46v73.237c10.24-0.86 22.599 0.625 37.079 4.864z" fill="#000000" />
</svg>
